<mxfile host="65bd71144e">
    <diagram id="e9BQPsLo5ePBHXaQwUQl" name="第 1 页">
        <mxGraphModel dx="1231" dy="849" grid="1" gridSize="10" guides="1" tooltips="1" connect="1" arrows="1" fold="1" page="1" pageScale="1" pageWidth="827" pageHeight="1169" math="0" shadow="0">
            <root>
                <mxCell id="0"/>
                <mxCell id="1" parent="0"/>
                <mxCell id="9" value="csrc" style="whiteSpace=wrap;html=1;" vertex="1" parent="1">
                    <mxGeometry x="200" y="160" width="140" height="160" as="geometry"/>
                </mxCell>
                <mxCell id="2" value="csrc" style="whiteSpace=wrap;html=1;" vertex="1" parent="1">
                    <mxGeometry x="210" y="170" width="120" height="40" as="geometry"/>
                </mxCell>
                <mxCell id="3" value="sgdnn" style="whiteSpace=wrap;html=1;" vertex="1" parent="1">
                    <mxGeometry x="370" y="220" width="100" height="40" as="geometry"/>
                </mxCell>
                <mxCell id="4" value="firmware_core" style="whiteSpace=wrap;html=1;" vertex="1" parent="1">
                    <mxGeometry x="490" y="220" width="110" height="40" as="geometry"/>
                </mxCell>
                <mxCell id="7" value="tpu" style="whiteSpace=wrap;html=1;" vertex="1" parent="1">
                    <mxGeometry x="210" y="210" width="120" height="40" as="geometry"/>
                </mxCell>
                <mxCell id="8" value="utils" style="whiteSpace=wrap;html=1;" vertex="1" parent="1">
                    <mxGeometry x="210" y="250" width="120" height="40" as="geometry"/>
                </mxCell>
                <mxCell id="10" value="torch-tpu" style="text;html=1;align=center;verticalAlign=middle;resizable=0;points=[];autosize=1;strokeColor=none;fillColor=none;" vertex="1" parent="1">
                    <mxGeometry x="235" y="320" width="70" height="30" as="geometry"/>
                </mxCell>
            </root>
        </mxGraphModel>
    </diagram>
</mxfile>